<svg width="13" height="18" viewBox="0 0 13 18" fill="none" xmlns="http://www.w3.org/2000/svg">
<path fill-rule="evenodd" clip-rule="evenodd" d="M6.50001 0C4.37633 0 2.63953 1.82157 2.60417 4.06299C2.60105 4.08613 2.60001 4.10927 2.60001 4.13242V4.87184C2.55594 4.87471 2.50899 4.87651 2.46178 4.87832L2.46176 4.87832H2.46175C2.38198 4.88138 2.30149 4.88447 2.23289 4.89278C1.62241 4.96551 1.08473 5.1242 0.688493 5.54405C0.291213 5.9639 0.141453 6.53363 0.0717729 7.18159C0.00602156 7.80228 0.00611738 8.54735 0.0062419 9.51559L0.00625289 9.64451V12.9857C0.00209289 13.0199 1.28918e-05 13.054 1.28918e-05 13.0882L9.55731e-06 13.1753C-4.73702e-05 14.164 -9.09921e-05 14.9215 0.0676129 15.5511C0.136253 16.1991 0.286013 16.7677 0.683293 17.1875C1.07953 17.6085 1.61721 17.7661 2.22769 17.8388C2.82163 17.9095 3.53525 17.9094 4.4667 17.9093L4.55001 17.9093H4.55625H8.45001C8.45613 17.9093 8.46224 17.9091 8.46848 17.9088C8.47497 17.9085 8.4816 17.9082 8.48849 17.9082H8.53107C9.46093 17.9083 10.1792 17.9083 10.7723 17.8377C11.3828 17.765 11.9195 17.6074 12.3167 17.1864C12.714 16.7666 12.8638 16.198 12.9324 15.55C13 14.9127 13 14.1427 13 13.1368V13.0915V13.0871V9.64781V9.64671V9.64451L13 9.55739V9.55735C13.0001 8.56873 13.0001 7.81118 12.9324 7.18159C12.8638 6.53363 12.714 5.9639 12.3167 5.54405C11.9195 5.1242 11.3828 4.96551 10.7723 4.89278C10.7047 4.88474 10.6259 4.88118 10.5477 4.87765H10.5477C10.4972 4.87537 10.4469 4.8731 10.4 4.86964V4.13242C10.4 4.10707 10.399 4.08062 10.3959 4.05528C10.3563 1.81716 8.62057 0 6.50001 0ZM6.50002 1.37746C7.9425 1.37746 9.10002 2.60507 9.10002 4.13241V4.82665C9.00249 4.82665 8.91012 4.82587 8.81514 4.82507H8.81513C8.71465 4.82422 8.61127 4.82335 8.49578 4.82335L8.49303 4.82315L8.49301 4.82315C8.47845 4.82212 8.4647 4.82114 8.45002 4.82114H4.55626C4.54468 4.82114 4.5331 4.82209 4.52068 4.82311L4.51778 4.82335C4.39956 4.82335 4.29372 4.82422 4.19092 4.82507C4.09387 4.82587 3.99952 4.82665 3.90002 4.82665V4.13241C3.90002 2.60507 5.05754 1.37746 6.50002 1.37746ZM8.40426 6.19861H4.5885L4.58746 6.19971C4.58226 6.19971 4.57706 6.19998 4.57186 6.20026C4.56666 6.20053 4.56146 6.20081 4.55626 6.20081C3.58386 6.20081 2.86314 6.20522 2.3785 6.26252C1.89386 6.31982 1.69938 6.42121 1.60682 6.51818C1.5153 6.61515 1.41962 6.82232 1.3645 7.33585C1.31042 7.84937 1.30626 8.61304 1.30626 9.64449V13.0882C1.30626 13.1201 1.30522 13.1521 1.30106 13.1851C1.30106 14.1604 1.30522 14.9009 1.35826 15.3957C1.41338 15.9103 1.50906 16.1164 1.60058 16.2145C1.69314 16.3115 1.88762 16.4117 2.37226 16.4701C2.8569 16.5274 3.57762 16.5319 4.55002 16.5319H4.55626H8.41674C8.42246 16.5313 8.42792 16.531 8.43338 16.5307C8.43884 16.5305 8.4443 16.5302 8.45002 16.5296C9.42138 16.5296 10.1421 16.5274 10.6267 16.4701C11.1114 16.4117 11.3069 16.3104 11.3995 16.2123C11.491 16.1153 11.5867 15.9081 11.6418 15.3946C11.6959 14.8822 11.7 14.1196 11.7 13.0915V9.6478V9.64559V9.64449C11.7 8.61304 11.6959 7.84937 11.6418 7.33585C11.5867 6.82232 11.491 6.61515 11.3995 6.51818C11.3069 6.4201 11.1114 6.31982 10.6267 6.26252C10.1421 6.20522 9.42138 6.20081 8.45002 6.20081C8.43534 6.20081 8.42158 6.19983 8.407 6.1988L8.40426 6.19861Z" fill="black"/>
<path fill-rule="evenodd" clip-rule="evenodd" d="M6.50209 8.95355C6.15681 8.95355 5.82609 9.09901 5.58169 9.35688C5.33729 9.61584 5.20001 9.96737 5.20001 10.3332C5.20001 10.5757 5.26033 10.8137 5.37473 11.0231C5.49017 11.2324 5.65449 11.4066 5.85209 11.5278V13.0882C5.85105 13.1796 5.86665 13.27 5.89889 13.3549C5.93113 13.4397 5.97897 13.5168 6.03929 13.5819C6.09961 13.6469 6.17241 13.6987 6.25145 13.7339C6.33153 13.7692 6.41681 13.7868 6.50209 13.7868C6.58841 13.7868 6.67369 13.7692 6.75377 13.7339C6.83281 13.6987 6.90457 13.6469 6.96489 13.5819C7.02625 13.5168 7.07305 13.4397 7.10529 13.3549C7.13753 13.27 7.15417 13.1796 7.15209 13.0882V11.5267C7.35073 11.4055 7.51505 11.2313 7.62945 11.022C7.74385 10.8126 7.80417 10.5757 7.80521 10.3332C7.80521 9.96737 7.66793 9.61584 7.42353 9.35688C7.17913 9.09901 6.84841 8.95355 6.50209 8.95355Z" fill="black"/>
</svg>
